<svg width="1280" height="720" xmlns="http://www.w3.org/2000/svg" xmlns:xlink="http://www.w3.org/1999/xlink" overflow="hidden"><g><rect x="0" y="0" width="1280" height="720" fill="#FFFFFF"/><path d="M260 150.167C260 141.238 267.238 134 276.167 134L359.833 134C368.762 134 376 141.238 376 150.167L376 214.833C376 223.762 368.762 231 359.833 231L276.167 231C267.238 231 260 223.762 260 214.833Z" stroke="#042433" stroke-width="2" stroke-miterlimit="8" stroke-dasharray="2 2" fill="none" fill-rule="evenodd"/><path d="M444 150.167C444 141.238 451.238 134 460.167 134L543.833 134C552.762 134 560 141.238 560 150.167L560 214.833C560 223.762 552.762 231 543.833 231L460.167 231C451.238 231 444 223.762 444 214.833Z" stroke="#042433" stroke-width="2" stroke-miterlimit="8" stroke-dasharray="2 2" fill="none" fill-rule="evenodd"/><text font-family="Aptos,Aptos_MSFontService,sans-serif" font-weight="700" font-size="16" transform="translate(260.533 125)">register patient</text><text font-family="Aptos,Aptos_MSFontService,sans-serif" font-weight="700" font-size="16" transform="translate(449.644 125)">treat patient</text><path d="M488 182.5C488 178.91 490.686 176 494 176 497.314 176 500 178.91 500 182.5 500 186.09 497.314 189 494 189 490.686 189 488 186.09 488 182.5Z" stroke="#000000" stroke-width="2" stroke-miterlimit="8" fill-rule="evenodd"/><path d="M312 163C312 159.686 314.686 157 318 157 321.314 157 324 159.686 324 163 324 166.314 321.314 169 318 169 314.686 169 312 166.314 312 163Z" stroke="#000000" stroke-width="2" stroke-miterlimit="8" fill-rule="evenodd"/><path d="M312 204.5C312 200.91 314.686 198 318 198 321.314 198 324 200.91 324 204.5 324 208.09 321.314 211 318 211 314.686 211 312 208.09 312 204.5Z" stroke="#000000" stroke-width="2" stroke-miterlimit="8" fill-rule="evenodd"/><path d="M324.091 162.004 482.939 176.47 482.758 178.462 323.909 163.996ZM481.883 173.362 489.488 178.071 481.158 181.329Z"/><path d="M0.106324-0.994331 158.965 15.9925 158.752 17.9811-0.106324 0.994331ZM157.958 12.8677 165.488 17.6956 157.108 20.8224Z" transform="matrix(1 0 0 -1 324 204.696)"/><text font-family="Aptos,Aptos_MSFontService,sans-serif" font-style="italic" font-weight="400" font-size="16" transform="translate(287.4 185)">doctor</text><text font-family="Aptos,Aptos_MSFontService,sans-serif" font-style="italic" font-weight="400" font-size="16" transform="translate(299.472 227)">illness</text><text font-family="Aptos,Aptos_MSFontService,sans-serif" font-style="italic" font-weight="400" font-size="16" transform="translate(484.986 203)">treatment</text><text font-family="Aptos,Aptos_MSFontService,sans-serif" font-style="italic" font-weight="400" font-size="16" transform="translate(484.986 222)">delayed</text><path d="M63.5999 332.281 243.92 332.281 243.92 372.281 63.5999 372.281Z" fill="#156082" fill-rule="evenodd"/><path d="M243.92 332.281 424.241 332.281 424.241 372.281 243.92 372.281Z" fill="#156082" fill-rule="evenodd"/><path d="M63.5999 372.281 243.92 372.281 243.92 412.281 63.5999 412.281Z" fill="#CCD2D8" fill-rule="evenodd"/><path d="M243.92 372.281 424.241 372.281 424.241 412.281 243.92 412.281Z" fill="#CCD2D8" fill-rule="evenodd"/><path d="M63.5999 412.281 243.92 412.281 243.92 452.281 63.5999 452.281Z" fill="#E7EAED" fill-rule="evenodd"/><path d="M243.92 412.281 424.241 412.281 424.241 452.281 243.92 452.281Z" fill="#E7EAED" fill-rule="evenodd"/><path d="M243.92 331.615 243.92 452.948" stroke="#FFFFFF" stroke-width="1.33333" stroke-linejoin="round" stroke-miterlimit="10" fill="none" fill-rule="evenodd"/><path d="M62.9332 372.281 424.907 372.281" stroke="#FFFFFF" stroke-width="4" stroke-linejoin="round" stroke-miterlimit="10" fill="none" fill-rule="evenodd"/><path d="M62.9332 412.281 424.907 412.281" stroke="#FFFFFF" stroke-width="1.33333" stroke-linejoin="round" stroke-miterlimit="10" fill="none" fill-rule="evenodd"/><path d="M63.5999 331.615 63.5999 452.948" stroke="#FFFFFF" stroke-width="1.33333" stroke-linejoin="round" stroke-miterlimit="10" fill="none" fill-rule="evenodd"/><path d="M424.241 331.615 424.241 452.948" stroke="#FFFFFF" stroke-width="1.33333" stroke-linejoin="round" stroke-miterlimit="10" fill="none" fill-rule="evenodd"/><path d="M62.9332 332.281 424.907 332.281" stroke="#FFFFFF" stroke-width="1.33333" stroke-linejoin="round" stroke-miterlimit="10" fill="none" fill-rule="evenodd"/><path d="M62.9332 452.281 424.907 452.281" stroke="#FFFFFF" stroke-width="1.33333" stroke-linejoin="round" stroke-miterlimit="10" fill="none" fill-rule="evenodd"/><g><text fill="#FFFFFF" font-family="Aptos,Aptos_MSFontService,sans-serif" font-weight="700" font-size="19" transform="translate(253.52 354)">Probability</text></g><g><text fill="#FFFFFF" font-family="Aptos,Aptos_MSFontService,sans-serif" font-weight="700" font-size="19" transform="translate(73.1999 354)">Doctor</text></g><g><text font-family="Aptos,Aptos_MSFontService,sans-serif" font-weight="400" font-size="19" transform="translate(253.52 394)">50%</text></g><g><text font-family="Aptos,Aptos_MSFontService,sans-serif" font-weight="400" font-size="19" transform="translate(73.1999 394)">Doc Aalst</text></g><g><text font-family="Aptos,Aptos_MSFontService,sans-serif" font-weight="400" font-size="19" transform="translate(253.52 434)">50%</text></g><g><text font-family="Aptos,Aptos_MSFontService,sans-serif" font-weight="400" font-size="19" transform="translate(73.1999 434)">Doktor</text></g><text font-family="Aptos,Aptos_MSFontService,sans-serif" font-weight="400" font-size="19" transform="translate(131.653 434)">Bibber</text><path d="M63.5999 502.229 232.889 502.229 232.889 542.229 63.5999 542.229Z" fill="#156082" fill-rule="evenodd"/><path d="M232.889 502.229 424.241 502.229 424.241 542.229 232.889 542.229Z" fill="#156082" fill-rule="evenodd"/><path d="M63.5999 542.229 232.889 542.229 232.889 582.229 63.5999 582.229Z" fill="#CCD2D8" fill-rule="evenodd"/><path d="M232.889 542.229 424.241 542.229 424.241 582.229 232.889 582.229Z" fill="#CCD2D8" fill-rule="evenodd"/><path d="M63.5999 582.229 232.889 582.229 232.889 636.629 63.5999 636.629Z" fill="#E7EAED" fill-rule="evenodd"/><path d="M232.889 582.229 424.241 582.229 424.241 636.629 232.889 636.629Z" fill="#E7EAED" fill-rule="evenodd"/><path d="M63.5999 636.629 232.889 636.629 232.889 691.029 63.5999 691.029Z" fill="#CCD2D8" fill-rule="evenodd"/><path d="M232.889 636.629 424.241 636.629 424.241 691.029 232.889 691.029Z" fill="#CCD2D8" fill-rule="evenodd"/><path d="M232.889 501.562 232.889 691.696" stroke="#FFFFFF" stroke-width="1.33333" stroke-linejoin="round" stroke-miterlimit="10" fill="none" fill-rule="evenodd"/><path d="M62.9332 542.229 424.907 542.229" stroke="#FFFFFF" stroke-width="4" stroke-linejoin="round" stroke-miterlimit="10" fill="none" fill-rule="evenodd"/><path d="M62.9332 582.229 424.907 582.229" stroke="#FFFFFF" stroke-width="1.33333" stroke-linejoin="round" stroke-miterlimit="10" fill="none" fill-rule="evenodd"/><path d="M62.9332 636.629 424.907 636.629" stroke="#FFFFFF" stroke-width="1.33333" stroke-linejoin="round" stroke-miterlimit="10" fill="none" fill-rule="evenodd"/><path d="M63.5999 501.562 63.5999 691.696" stroke="#FFFFFF" stroke-width="1.33333" stroke-linejoin="round" stroke-miterlimit="10" fill="none" fill-rule="evenodd"/><path d="M424.241 501.562 424.241 691.696" stroke="#FFFFFF" stroke-width="1.33333" stroke-linejoin="round" stroke-miterlimit="10" fill="none" fill-rule="evenodd"/><path d="M62.9332 502.229 424.907 502.229" stroke="#FFFFFF" stroke-width="1.33333" stroke-linejoin="round" stroke-miterlimit="10" fill="none" fill-rule="evenodd"/><path d="M62.9332 691.029 424.907 691.029" stroke="#FFFFFF" stroke-width="1.33333" stroke-linejoin="round" stroke-miterlimit="10" fill="none" fill-rule="evenodd"/><g><text fill="#FFFFFF" font-family="Aptos,Aptos_MSFontService,sans-serif" font-weight="700" font-size="19" transform="translate(242.489 524)">Probability</text></g><g><text fill="#FFFFFF" font-family="Aptos,Aptos_MSFontService,sans-serif" font-weight="700" font-size="19" transform="translate(73.1999 524)">Illness</text></g><g><text font-family="Aptos,Aptos_MSFontService,sans-serif" font-weight="400" font-size="19" transform="translate(242.489 564)">33%</text></g><g><text font-family="Aptos,Aptos_MSFontService,sans-serif" font-weight="400" font-size="19" transform="translate(73.1999 564)">Bias Blindness</text></g><g><text font-family="Aptos,Aptos_MSFontService,sans-serif" font-weight="400" font-size="19" transform="translate(242.489 604)">33%</text></g><g><text font-family="Aptos,Aptos_MSFontService,sans-serif" font-weight="400" font-size="19" transform="translate(73.1999 604)">Causal_Confusion</text></g><g><text font-family="Aptos,Aptos_MSFontService,sans-serif" font-weight="400" font-size="19" transform="translate(73.1999 627)">_Syndrome</text></g><g><text font-family="Aptos,Aptos_MSFontService,sans-serif" font-weight="400" font-size="19" transform="translate(242.489 658)">33%</text></g><g><text font-family="Aptos,Aptos_MSFontService,sans-serif" font-weight="400" font-size="19" transform="translate(73.1999 658)">Null_Pointer_Neur</text></g><g><text font-family="Aptos,Aptos_MSFontService,sans-serif" font-weight="400" font-size="19" transform="translate(73.1999 681)">osis</text></g><path d="M487.994 332.281 610.902 332.281 610.902 372.281 487.994 372.281Z" fill="#156082" fill-rule="evenodd"/><path d="M610.902 332.281 904.235 332.281 904.235 372.281 610.902 372.281Z" fill="#156082" fill-rule="evenodd"/><path d="M487.994 372.281 610.902 372.281 610.902 426.681 487.994 426.681Z" fill="#CCD2D8" fill-rule="evenodd"/><path d="M610.902 372.281 699.791 372.281 699.791 426.681 610.902 426.681Z" fill="#CCD2D8" fill-rule="evenodd"/><path d="M699.791 372.281 788.907 372.281 788.907 426.681 699.791 426.681Z" fill="#CCD2D8" fill-rule="evenodd"/><path d="M788.907 372.281 904.235 372.281 904.235 426.681 788.907 426.681Z" fill="#CCD2D8" fill-rule="evenodd"/><path d="M487.994 426.681 610.902 426.681 610.902 506.681 487.994 506.681Z" fill="#E7EAED" fill-rule="evenodd"/><path d="M610.902 426.681 699.791 426.681 699.791 506.681 610.902 506.681Z" fill="#E7EAED" fill-rule="evenodd"/><path d="M699.791 426.681 788.907 426.681 788.907 506.681 699.791 506.681Z" fill="#E7EAED" fill-rule="evenodd"/><path d="M788.907 426.681 904.235 426.681 904.235 506.681 788.907 506.681Z" fill="#E7EAED" fill-rule="evenodd"/><path d="M487.994 506.681 610.902 506.681 610.902 586.681 487.994 586.681Z" fill="#CCD2D8" fill-rule="evenodd"/><path d="M610.902 506.681 699.791 506.681 699.791 586.681 610.902 586.681Z" fill="#CCD2D8" fill-rule="evenodd"/><path d="M699.791 506.681 788.907 506.681 788.907 586.681 699.791 586.681Z" fill="#CCD2D8" fill-rule="evenodd"/><path d="M788.907 506.681 904.235 506.681 904.235 586.681 788.907 586.681Z" fill="#CCD2D8" fill-rule="evenodd"/><path d="M487.994 586.681 610.902 586.681 610.902 626.681 487.994 626.681Z" fill="#E7EAED" fill-rule="evenodd"/><path d="M610.902 586.681 699.791 586.681 699.791 626.681 610.902 626.681Z" fill="#E7EAED" fill-rule="evenodd"/><path d="M699.791 586.681 788.907 586.681 788.907 626.681 699.791 626.681Z" fill="#E7EAED" fill-rule="evenodd"/><path d="M788.907 586.681 904.235 586.681 904.235 626.681 788.907 626.681Z" fill="#E7EAED" fill-rule="evenodd"/><path d="M610.902 331.615 610.902 627.348" stroke="#FFFFFF" stroke-width="1.33333" stroke-linejoin="round" stroke-miterlimit="10" fill="none" fill-rule="evenodd"/><path d="M699.791 370.281 699.791 627.348" stroke="#FFFFFF" stroke-width="1.33333" stroke-linejoin="round" stroke-miterlimit="10" fill="none" fill-rule="evenodd"/><path d="M788.907 370.281 788.907 627.348" stroke="#FFFFFF" stroke-width="1.33333" stroke-linejoin="round" stroke-miterlimit="10" fill="none" fill-rule="evenodd"/><path d="M487.328 372.281 904.902 372.281" stroke="#FFFFFF" stroke-width="4" stroke-linejoin="round" stroke-miterlimit="10" fill="none" fill-rule="evenodd"/><path d="M487.328 426.681 904.902 426.681" stroke="#FFFFFF" stroke-width="1.33333" stroke-linejoin="round" stroke-miterlimit="10" fill="none" fill-rule="evenodd"/><path d="M487.328 506.681 904.902 506.681" stroke="#FFFFFF" stroke-width="1.33333" stroke-linejoin="round" stroke-miterlimit="10" fill="none" fill-rule="evenodd"/><path d="M487.328 586.681 904.902 586.681" stroke="#FFFFFF" stroke-width="1.33333" stroke-linejoin="round" stroke-miterlimit="10" fill="none" fill-rule="evenodd"/><path d="M487.994 331.615 487.994 627.348" stroke="#FFFFFF" stroke-width="1.33333" stroke-linejoin="round" stroke-miterlimit="10" fill="none" fill-rule="evenodd"/><path d="M904.235 331.615 904.235 627.348" stroke="#FFFFFF" stroke-width="1.33333" stroke-linejoin="round" stroke-miterlimit="10" fill="none" fill-rule="evenodd"/><path d="M487.328 332.281 904.902 332.281" stroke="#FFFFFF" stroke-width="1.33333" stroke-linejoin="round" stroke-miterlimit="10" fill="none" fill-rule="evenodd"/><path d="M487.328 626.681 904.902 626.681" stroke="#FFFFFF" stroke-width="1.33333" stroke-linejoin="round" stroke-miterlimit="10" fill="none" fill-rule="evenodd"/><g><text fill="#FFFFFF" font-family="Aptos,Aptos_MSFontService,sans-serif" font-weight="700" font-size="19" transform="translate(620.502 354)">Conditional Probability</text></g><g><text fill="#FFFFFF" font-family="Aptos,Aptos_MSFontService,sans-serif" font-weight="700" font-size="19" transform="translate(497.594 354)">Input</text></g><g><text font-family="Aptos,Aptos_MSFontService,sans-serif" font-weight="400" font-size="19" transform="translate(798.507 394)">High Delay</text></g><g><text font-family="Aptos,Aptos_MSFontService,sans-serif" font-weight="400" font-size="19" transform="translate(709.391 394)">Slight</text></g><g><text font-family="Aptos,Aptos_MSFontService,sans-serif" font-weight="400" font-size="19" transform="translate(709.391 417)">Delay</text></g><g><text font-family="Aptos,Aptos_MSFontService,sans-serif" font-weight="400" font-size="19" transform="translate(620.502 394)">No</text></g><g><text font-family="Aptos,Aptos_MSFontService,sans-serif" font-weight="400" font-size="19" transform="translate(620.502 417)">Delay</text></g><g><text font-family="Aptos,Aptos_MSFontService,sans-serif" font-weight="400" font-size="19" transform="translate(798.507 448)">33%</text></g><g><text font-family="Aptos,Aptos_MSFontService,sans-serif" font-weight="400" font-size="19" transform="translate(709.391 448)">33%</text></g><g><text font-family="Aptos,Aptos_MSFontService,sans-serif" font-weight="400" font-size="19" transform="translate(620.502 448)">33%</text></g><text font-family="Aptos,Aptos_MSFontService,sans-serif" font-weight="400" font-size="15" transform="translate(497.594 445)">Doctor = Doc</text><text font-family="Aptos,Aptos_MSFontService,sans-serif" font-weight="400" font-size="15" transform="translate(497.594 462)">Aalst,</text><text font-family="Aptos,Aptos_MSFontService,sans-serif" font-weight="400" font-size="15" transform="translate(497.594 480)">Illness = Bias</text><text font-family="Aptos,Aptos_MSFontService,sans-serif" font-weight="400" font-size="15" transform="translate(497.594 497)">Blindness</text><g><text font-family="Aptos,Aptos_MSFontService,sans-serif" font-weight="400" font-size="19" transform="translate(798.507 528)">33%</text></g><g><text font-family="Aptos,Aptos_MSFontService,sans-serif" font-weight="400" font-size="19" transform="translate(709.391 528)">33%</text></g><g><text font-family="Aptos,Aptos_MSFontService,sans-serif" font-weight="400" font-size="19" transform="translate(620.502 528)">33%</text></g><text font-family="Aptos,Aptos_MSFontService,sans-serif" font-weight="400" font-size="15" transform="translate(497.594 525)">Doctor = Doc</text><text font-family="Aptos,Aptos_MSFontService,sans-serif" font-weight="400" font-size="15" transform="translate(497.594 542)">Aalst,</text><text font-family="Aptos,Aptos_MSFontService,sans-serif" font-weight="400" font-size="15" transform="translate(497.594 560)">Illness = Causal</text><text font-family="Aptos,Aptos_MSFontService,sans-serif" font-weight="400" font-size="15" transform="translate(497.594 577)">Confusion</text><g><text font-family="Aptos,Aptos_MSFontService,sans-serif" font-weight="400" font-size="19" transform="translate(798.507 608)">…</text></g><g><text font-family="Aptos,Aptos_MSFontService,sans-serif" font-weight="400" font-size="19" transform="translate(709.391 608)">…</text></g><g><text font-family="Aptos,Aptos_MSFontService,sans-serif" font-weight="400" font-size="19" transform="translate(620.502 608)">…</text></g><g><text font-family="Aptos,Aptos_MSFontService,sans-serif" font-weight="400" font-size="19" transform="translate(497.594 608)">…</text></g><text font-family="Aptos,Aptos_MSFontService,sans-serif" font-style="italic" font-weight="400" font-size="19" transform="translate(616.959 322)">treatment delayed</text><text font-family="Aptos,Aptos_MSFontService,sans-serif" font-style="italic" font-weight="400" font-size="19" transform="translate(213.068 320)">doctor</text><text font-family="Aptos,Aptos_MSFontService,sans-serif" font-style="italic" font-weight="400" font-size="19" transform="translate(211.562 486)">illness</text><path d="M828 173C828 164.716 834.94 158 843.5 158 852.06 158 859 164.716 859 173 859 181.284 852.06 188 843.5 188 834.94 188 828 181.284 828 173Z" stroke="#042433" stroke-width="2" stroke-miterlimit="8" fill="none" fill-rule="evenodd"/><rect x="895" y="149" width="73" height="48" stroke="#042433" stroke-width="2" stroke-miterlimit="8" fill="none"/><text font-family="Aptos,Aptos_MSFontService,sans-serif" font-weight="400" font-size="15" transform="translate(907.589 169)">register</text><text font-family="Aptos,Aptos_MSFontService,sans-serif" font-weight="400" font-size="15" transform="translate(909.009 186)">patient</text><rect x="1071" y="149" width="73" height="48" stroke="#042433" stroke-width="2" stroke-miterlimit="8" fill="none"/><text font-family="Aptos,Aptos_MSFontService,sans-serif" font-weight="400" font-size="15" transform="translate(1092.91 169)">treat</text><text font-family="Aptos,Aptos_MSFontService,sans-serif" font-weight="400" font-size="15" transform="translate(1085.41 186)">patient</text><path d="M1004 170.5C1004 161.94 1011.16 155 1020 155 1028.84 155 1036 161.94 1036 170.5 1036 179.06 1028.84 186 1020 186 1011.16 186 1004 179.06 1004 170.5Z" stroke="#042433" stroke-width="2" stroke-miterlimit="8" fill="none" fill-rule="evenodd"/><path d="M1181 169.5C1181 160.94 1187.94 154 1196.5 154 1205.06 154 1212 160.94 1212 169.5 1212 178.06 1205.06 185 1196.5 185 1187.94 185 1181 178.06 1181 169.5Z" stroke="#042433" stroke-width="2" stroke-miterlimit="8" fill="none" fill-rule="evenodd"/><path d="M859 172 888.527 172 888.527 174 859 174ZM887.194 169 895.194 173 887.194 177Z"/><path d="M0.0599491-0.998201 30.0126 0.800668 29.8927 2.79707-0.0599491 0.998201ZM28.8615-2.27387 36.6073 2.19853 28.3819 5.71174Z" transform="matrix(1 0 0 -1 968 173.199)"/><path d="M1036.06 170.002 1065.19 171.792 1065.06 173.788 1035.94 171.998ZM1064.04 168.715 1071.78 173.199 1063.55 176.7Z"/><path d="M0.0922198-0.995739 30.6323 1.83272 30.4479 3.8242-0.0922198 0.995739ZM29.5813-1.27746 37.1784 3.44325 28.8436 6.68845Z" transform="matrix(1 0 0 -1 1144 172.443)"/><text fill="#196B24" font-family="Aptos,Aptos_MSFontService,sans-serif" font-style="italic" font-weight="700" font-size="24" transform="translate(977.383 330)">Simulation Parameters</text><text fill="#196B24" font-family="Aptos,Aptos_MSFontService,sans-serif" font-style="italic" font-weight="700" font-size="24" transform="translate(913.835 86)">Petri net</text><text fill="#196B24" font-family="Aptos,Aptos_MSFontService,sans-serif" font-style="italic" font-weight="700" font-size="24" transform="translate(317.704 74)">Causal Model</text><text font-family="Aptos,Aptos_MSFontService,sans-serif" font-weight="700" font-size="24" transform="translate(977.383 387)">Number of cases</text><text font-family="Aptos,Aptos_MSFontService,sans-serif" font-weight="400" font-size="24" transform="translate(1166.68 387)">= 100</text><text font-family="Aptos,Aptos_MSFontService,sans-serif" font-weight="700" font-size="24" transform="translate(977.383 416)">Case Arrival</text><text font-family="Aptos,Aptos_MSFontService,sans-serif" font-weight="400" font-size="24" transform="translate(1108.96 416)">: Every hour</text><text font-family="Aptos,Aptos_MSFontService,sans-serif" font-weight="700" font-size="24" transform="translate(977.383 445)">Execution Delays:</text><text font-family="Aptos,Aptos_MSFontService,sans-serif" font-style="italic" font-weight="400" font-size="24" transform="translate(977.383 474)">register patient</text><text font-family="Aptos,Aptos_MSFontService,sans-serif" font-weight="400" font-size="24" transform="translate(1131.77 474)">: 10min</text><text font-family="Aptos,Aptos_MSFontService,sans-serif" font-style="italic" font-weight="400" font-size="24" transform="translate(977.383 502)">treat patient:</text><text font-family="Aptos,Aptos_MSFontService,sans-serif" font-weight="400" font-size="24" transform="translate(1114.32 502)">2 hours</text><text fill="#196B24" font-family="Aptos,Aptos_MSFontService,sans-serif" font-style="italic" font-weight="700" font-size="19" transform="translate(378.181 288)">Attribute Valuations</text></g></svg>